<svg viewBox="0 0 24 24" fill="none" xmlns="http://www.w3.org/2000/svg">
<g id="Frame" clip-path="url(#clip0_41_3500)">
<g id="Group">
<path id="Vector" d="M23.7395 11.4814L22.2856 10.1327C22.1864 10.0408 22.1104 9.92674 22.0637 9.79989L20.9218 6.69934C20.7585 6.26237 20.466 5.88555 20.0831 5.6191C19.7002 5.35264 19.2452 5.20921 18.7787 5.20792H17.0487V4.72257C17.0487 4.51385 16.9658 4.31368 16.8182 4.16609C16.6706 4.0185 16.4704 3.93559 16.2617 3.93559H5.80638C5.65081 3.93376 5.50066 3.99267 5.38785 4.0998C5.27503 4.20693 5.20845 4.35384 5.20225 4.50929C5.2008 4.587 5.21485 4.66422 5.24358 4.73643C5.27232 4.80865 5.31515 4.87441 5.36959 4.92988C5.42403 4.98535 5.48898 5.02941 5.56064 5.05949C5.63231 5.08957 5.70925 5.10507 5.78697 5.10507H15.8792V10.1792C15.8792 10.3879 15.9621 10.588 16.1097 10.7356C16.2572 10.8832 16.4574 10.9661 16.6661 10.9661H21.4189L22.8304 12.2364V16.9751H21.5508C21.4233 16.4175 21.1104 15.9196 20.6631 15.5631C20.2159 15.2065 19.6608 15.0123 19.0888 15.0123C18.5168 15.0123 17.9618 15.2065 17.5145 15.5631C17.0673 15.9196 16.7543 16.4175 16.6269 16.9751H12.6891C12.5616 16.4175 12.2487 15.9196 11.8014 15.5631C11.3542 15.2065 10.7991 15.0123 10.2272 15.0123C9.65517 15.0123 9.10012 15.2065 8.65287 15.5631C8.20562 15.9196 7.89267 16.4175 7.76523 16.9751H5.80633C5.65074 16.9733 5.50058 17.0322 5.38777 17.1394C5.27496 17.2465 5.2084 17.3935 5.20225 17.5489C5.2008 17.6266 5.21485 17.7039 5.24358 17.7761C5.27232 17.8483 5.31516 17.914 5.3696 17.9695C5.42404 18.025 5.48899 18.069 5.56065 18.0991C5.63231 18.1292 5.70925 18.1447 5.78697 18.1447H7.77508C7.91052 18.6926 8.22559 19.1794 8.67001 19.5273C9.11443 19.8752 9.66258 20.0643 10.227 20.0643C10.7914 20.0643 11.3396 19.8752 11.784 19.5273C12.2284 19.1794 12.5435 18.6926 12.6789 18.1447H16.6368C16.7723 18.6926 17.0874 19.1794 17.5318 19.5273C17.9762 19.8752 18.5243 20.0643 19.0888 20.0643C19.6532 20.0643 20.2013 19.8752 20.6457 19.5273C21.0902 19.1794 21.4052 18.6926 21.5407 18.1447H23.213C23.4217 18.1447 23.6219 18.0618 23.7695 17.9142C23.9171 17.7666 24 17.5664 24 17.3577V12.0663C23.9999 11.956 23.9767 11.847 23.9318 11.7462C23.887 11.6454 23.8215 11.5552 23.7395 11.4814ZM17.0487 9.79679V6.37735H18.7787C19.0065 6.37798 19.2286 6.44801 19.4156 6.57811C19.6025 6.70821 19.7454 6.8922 19.8251 7.10556L20.8219 9.79679H17.0487ZM10.227 18.8946C9.95874 18.8946 9.69649 18.8151 9.47342 18.666C9.25036 18.517 9.0765 18.3051 8.97384 18.0573C8.87118 17.8094 8.84432 17.5367 8.89666 17.2736C8.949 17.0104 9.07819 16.7687 9.2679 16.579C9.4576 16.3894 9.6993 16.2602 9.96242 16.2078C10.2255 16.1555 10.4983 16.1824 10.7461 16.285C10.994 16.3877 11.2058 16.5616 11.3549 16.7846C11.5039 17.0077 11.5834 17.27 11.5834 17.5382C11.583 17.8979 11.44 18.2426 11.1857 18.4969C10.9314 18.7512 10.5866 18.8942 10.227 18.8946ZM19.0888 18.8946C18.8205 18.8946 18.5582 18.8151 18.3352 18.666C18.1121 18.517 17.9382 18.3052 17.8356 18.0573C17.7329 17.8094 17.706 17.5367 17.7584 17.2736C17.8107 17.0105 17.9399 16.7688 18.1296 16.5791C18.3193 16.3894 18.561 16.2602 18.8241 16.2078C19.0872 16.1555 19.36 16.1824 19.6078 16.285C19.8557 16.3877 20.0675 16.5616 20.2166 16.7846C20.3656 17.0077 20.4452 17.27 20.4452 17.5382C20.4447 17.8979 20.3017 18.2426 20.0474 18.4969C19.7932 18.7512 19.4484 18.8942 19.0888 18.8946Z" fill="black"/>
<path id="Vector_2" d="M3.28994 8.37666H9.92153C10.0766 8.37666 10.2254 8.31504 10.3351 8.20537C10.4447 8.0957 10.5063 7.94695 10.5063 7.79184C10.5063 7.63674 10.4447 7.48799 10.3351 7.37832C10.2254 7.26864 10.0766 7.20703 9.92153 7.20703H3.28994C3.13483 7.20703 2.98609 7.26864 2.87641 7.37832C2.76674 7.48799 2.70512 7.63674 2.70512 7.79184C2.70512 7.94695 2.76674 8.0957 2.87641 8.20537C2.98609 8.31504 3.13483 8.37666 3.28994 8.37666ZM10.5063 11.0403C10.5063 10.8852 10.4447 10.7365 10.3351 10.6268C10.2254 10.5171 10.0766 10.4555 9.92153 10.4555H0.584921C0.507685 10.4548 0.431077 10.4694 0.35952 10.4985C0.287964 10.5276 0.222876 10.5706 0.168016 10.6249C0.113156 10.6793 0.0696093 10.744 0.0398915 10.8153C0.0101737 10.8866 -0.00512695 10.9631 -0.00512695 11.0403C-0.00512695 11.1175 0.0101737 11.194 0.0398915 11.2653C0.0696093 11.3366 0.113156 11.4013 0.168016 11.4557C0.222876 11.51 0.287964 11.553 0.35952 11.5821C0.431077 11.6112 0.507685 11.6258 0.584921 11.6251H9.92153C10.0766 11.6251 10.2254 11.5635 10.335 11.4538C10.4447 11.3442 10.5063 11.1954 10.5063 11.0403ZM6.80345 14.2888C6.80345 14.212 6.78833 14.136 6.75894 14.065C6.72955 13.9941 6.68648 13.9296 6.63218 13.8753C6.57788 13.821 6.51341 13.7779 6.44247 13.7486C6.37152 13.7192 6.29548 13.704 6.21869 13.704H2.15411C1.99992 13.7054 1.85252 13.7676 1.74397 13.8772C1.63543 13.9867 1.57453 14.1346 1.57453 14.2888C1.57453 14.443 1.63543 14.591 1.74397 14.7005C1.85252 14.81 1.99992 14.8722 2.15411 14.8736H6.21869C6.37378 14.8736 6.52252 14.812 6.63218 14.7023C6.74184 14.5926 6.80345 14.4439 6.80345 14.2888Z" fill="black"/>
</g>
</g>
<defs>
<clipPath id="clip0_41_3500">
<rect width="24" height="24" fill="white"/>
</clipPath>
</defs>
</svg>
