<svg viewBox="0 0 24 24" fill="none" xmlns="http://www.w3.org/2000/svg">
<g clip-path="url(#clip0_25_3673)">
<path d="M15.3125 8.6953C15.0021 8.6953 14.7505 8.94694 14.7505 9.25736V19.8803C14.7505 20.1905 15.0021 20.4423 15.3125 20.4423C15.623 20.4423 15.8746 20.1905 15.8746 19.8803V9.25736C15.8746 8.94694 15.623 8.6953 15.3125 8.6953ZM8.68022 8.6953C8.3698 8.6953 8.11816 8.94694 8.11816 9.25736V19.8803C8.11816 20.1905 8.3698 20.4423 8.68022 20.4423C8.99071 20.4423 9.24228 20.1905 9.24228 19.8803V9.25736C9.24228 8.94694 8.99071 8.6953 8.68022 8.6953Z" fill="currentColor"/>
<path d="M3.84633 7.14503V20.993C3.84633 21.8115 4.14647 22.5801 4.67076 23.1316C4.92892 23.4053 5.24015 23.6234 5.58543 23.7727C5.93072 23.922 6.30281 23.9993 6.679 24H17.3134C17.6896 23.9994 18.0617 23.922 18.407 23.7727C18.7523 23.6234 19.0635 23.4053 19.3216 23.1316C19.846 22.5801 20.1461 21.8115 20.1461 20.993V7.14503C21.1883 6.86839 21.8637 5.86151 21.7243 4.79208C21.5846 3.72282 20.6737 2.92301 19.5952 2.92278H16.7175V2.22021C16.7191 1.92773 16.6626 1.63785 16.5513 1.36739C16.4399 1.09693 16.276 0.851275 16.0689 0.644699C15.8618 0.438143 15.6157 0.274792 15.345 0.164131C15.0742 0.0534697 14.7842 -0.00229572 14.4917 7.28573e-05H9.50076C9.20826 -0.00230318 8.9182 0.0534586 8.64742 0.16412C8.37665 0.274781 8.13056 0.438136 7.92345 0.644699C7.7164 0.851275 7.55244 1.09693 7.44111 1.36739C7.32977 1.63785 7.27327 1.92773 7.27489 2.22021V2.92278H4.39726C3.31878 2.92301 2.40785 3.72282 2.26818 4.79208C2.12879 5.86151 2.8041 6.86839 3.84633 7.14503ZM17.3134 22.8759H6.67905C5.71804 22.8759 4.97045 22.0503 4.97045 20.993V7.19444H19.0219V20.993C19.0219 22.0504 18.2744 22.8759 17.3134 22.8759ZM8.39901 2.22021C8.39717 2.0753 8.42447 1.9315 8.47927 1.79734C8.53407 1.66319 8.61527 1.5414 8.71804 1.43923C8.82077 1.33699 8.94299 1.25643 9.07744 1.20231C9.21189 1.1482 9.35585 1.12163 9.50076 1.12419H14.4917C14.6366 1.12163 14.7805 1.1482 14.915 1.20231C15.0495 1.25643 15.1717 1.33699 15.2744 1.43923C15.3772 1.5414 15.4584 1.66318 15.5132 1.79734C15.568 1.9315 15.5952 2.0753 15.5934 2.22021V2.92278H8.39901V2.22021ZM4.39726 4.0469H19.5953C20.154 4.0469 20.607 4.49987 20.607 5.05861C20.607 5.61735 20.154 6.07032 19.5953 6.07032H4.3972C3.83846 6.07032 3.3855 5.61735 3.3855 5.05861C3.3855 4.49987 3.83852 4.0469 4.39726 4.0469Z" fill="currentColor"/>
<path d="M11.9966 8.6953C11.6862 8.6953 11.4346 8.94694 11.4346 9.25736V19.8803C11.4346 20.1905 11.6862 20.4423 11.9966 20.4423C12.3071 20.4423 12.5587 20.1905 12.5587 19.8803V9.25736C12.5587 8.94694 12.3071 8.6953 11.9966 8.6953Z" fill="currentColor"/>
</g>
<defs>
<clipPath id="clip0_25_3673">
<rect width="24" height="24" fill="white"/>
</clipPath>
</defs>
</svg>
