<svg viewBox="0 0 30 30" fill="none" xmlns="http://www.w3.org/2000/svg">
<path fill-rule="evenodd" clip-rule="evenodd" d="M12.8125 8.75C12.8125 8.50136 12.9113 8.2629 13.0871 8.08709C13.2629 7.91127 13.5014 7.8125 13.75 7.8125H26.25C26.4986 7.8125 26.7371 7.91127 26.9129 8.08709C27.0887 8.2629 27.1875 8.50136 27.1875 8.75C27.1875 8.99864 27.0887 9.2371 26.9129 9.41291C26.7371 9.58873 26.4986 9.6875 26.25 9.6875H13.75C13.5014 9.6875 13.2629 9.58873 13.0871 9.41291C12.9113 9.2371 12.8125 8.99864 12.8125 8.75Z" fill="currentColor"/>
<path d="M3.75 8.75C3.75 9.41304 4.01339 10.0489 4.48223 10.5178C4.95107 10.9866 5.58696 11.25 6.25 11.25C6.91304 11.25 7.54893 10.9866 8.01777 10.5178C8.48661 10.0489 8.75 9.41304 8.75 8.75C8.75 8.08696 8.48661 7.45107 8.01777 6.98223C7.54893 6.51339 6.91304 6.25 6.25 6.25C5.58696 6.25 4.95107 6.51339 4.48223 6.98223C4.01339 7.45107 3.75 8.08696 3.75 8.75Z" fill="currentColor"/>
<path fill-rule="evenodd" clip-rule="evenodd" d="M6.25 7.1875C6.6644 7.1875 7.06183 7.35212 7.35485 7.64515C7.64788 7.93817 7.8125 8.3356 7.8125 8.75C7.8125 9.1644 7.64788 9.56183 7.35485 9.85485C7.06183 10.1479 6.6644 10.3125 6.25 10.3125C5.8356 10.3125 5.43817 10.1479 5.14515 9.85485C4.85212 9.56183 4.6875 9.1644 4.6875 8.75C4.6875 8.3356 4.85212 7.93817 5.14515 7.64515C5.43817 7.35212 5.8356 7.1875 6.25 7.1875ZM9.6875 8.75C9.6875 7.83832 9.32534 6.96398 8.68068 6.31932C8.03602 5.67466 7.16168 5.3125 6.25 5.3125C5.33832 5.3125 4.46398 5.67466 3.81932 6.31932C3.17466 6.96398 2.8125 7.83832 2.8125 8.75C2.8125 9.66168 3.17466 10.536 3.81932 11.1807C4.46398 11.8253 5.33832 12.1875 6.25 12.1875C7.16168 12.1875 8.03602 11.8253 8.68068 11.1807C9.32534 10.536 9.6875 9.66168 9.6875 8.75ZM17.1875 21.25C17.1875 21.0014 17.0887 20.7629 16.9129 20.5871C16.7371 20.4113 16.4986 20.3125 16.25 20.3125H3.75C3.50136 20.3125 3.2629 20.4113 3.08709 20.5871C2.91127 20.7629 2.8125 21.0014 2.8125 21.25C2.8125 21.4986 2.91127 21.7371 3.08709 21.9129C3.2629 22.0887 3.50136 22.1875 3.75 22.1875H16.25C16.4986 22.1875 16.7371 22.0887 16.9129 21.9129C17.0887 21.7371 17.1875 21.4986 17.1875 21.25Z" fill="currentColor"/>
<path d="M26.25 21.25C26.25 21.913 25.9866 22.5489 25.5178 23.0178C25.0489 23.4866 24.413 23.75 23.75 23.75C23.087 23.75 22.4511 23.4866 21.9822 23.0178C21.5134 22.5489 21.25 21.913 21.25 21.25C21.25 20.587 21.5134 19.9511 21.9822 19.4822C22.4511 19.0134 23.087 18.75 23.75 18.75C24.413 18.75 25.0489 19.0134 25.5178 19.4822C25.9866 19.9511 26.25 20.587 26.25 21.25Z" fill="currentColor"/>
<path fill-rule="evenodd" clip-rule="evenodd" d="M23.75 19.6875C23.3356 19.6875 22.9382 19.8521 22.6451 20.1451C22.3521 20.4382 22.1875 20.8356 22.1875 21.25C22.1875 21.6644 22.3521 22.0618 22.6451 22.3549C22.9382 22.6479 23.3356 22.8125 23.75 22.8125C24.1644 22.8125 24.5618 22.6479 24.8549 22.3549C25.1479 22.0618 25.3125 21.6644 25.3125 21.25C25.3125 20.8356 25.1479 20.4382 24.8549 20.1451C24.5618 19.8521 24.1644 19.6875 23.75 19.6875ZM20.3125 21.25C20.3125 20.3383 20.6747 19.464 21.3193 18.8193C21.964 18.1747 22.8383 17.8125 23.75 17.8125C24.6617 17.8125 25.536 18.1747 26.1807 18.8193C26.8253 19.464 27.1875 20.3383 27.1875 21.25C27.1875 22.1617 26.8253 23.036 26.1807 23.6807C25.536 24.3253 24.6617 24.6875 23.75 24.6875C22.8383 24.6875 21.964 24.3253 21.3193 23.6807C20.6747 23.036 20.3125 22.1617 20.3125 21.25Z" fill="currentColor"/>
</svg>
