<svg viewBox="0 0 21 21" fill="none" xmlns="http://www.w3.org/2000/svg">
<path d="M15.3155 0H5.68452C2.55002 0 0 2.55002 0 5.68452V15.3156C0 18.45 2.55002 21 5.68452 21H15.3156C18.45 21 21 18.45 21 15.3156V5.68452C21 2.55002 18.45 0 15.3155 0ZM10.5 16.242C7.3338 16.242 4.75798 13.6662 4.75798 10.5C4.75798 7.33376 7.33376 4.75798 10.5 4.75798C13.6662 4.75798 16.242 7.33376 16.242 10.5C16.242 13.6662 13.6662 16.242 10.5 16.242ZM16.3793 6.11215C15.4437 6.11215 14.6826 5.3511 14.6826 4.41541C14.6826 3.47972 15.4437 2.7186 16.3793 2.7186C17.315 2.7186 18.0762 3.47977 18.0762 4.41541C18.0762 5.35106 17.315 6.11215 16.3793 6.11215Z" fill="currentColor"/>
<path d="M10.5707 6.02803C8.05056 6.02803 6 8.04036 6 10.514C6 12.9875 8.05056 15 10.5707 15C13.0911 15 15.1415 12.9875 15.1415 10.514C15.1415 8.04036 13.0911 6.02803 10.5707 6.02803ZM16.5281 4C16.268 4 16.0563 4.20782 16.0563 4.46304C16.0563 4.7183 16.268 4.92608 16.5281 4.92608C16.7883 4.92608 17 4.71846 17 4.46304C17 4.20766 16.7883 4 16.5281 4Z" fill="currentColor"/>
</svg>
