<svg viewBox="0 0 31 31" fill="none" xmlns="http://www.w3.org/2000/svg">
<path d="M22.2812 2.90625H8.71875C7.43458 2.90779 6.20345 3.4186 5.2954 4.32665C4.38735 5.2347 3.87654 6.46583 3.875 7.75V17.4375C3.87654 18.7217 4.38735 19.9528 5.2954 20.8609C6.20345 21.7689 7.43458 22.2797 8.71875 22.2812H10.6562V27.125C10.6564 27.3101 10.7096 27.4913 10.8096 27.6471C10.9095 27.8029 11.052 27.9268 11.2202 28.0042C11.3883 28.0816 11.5751 28.1091 11.7585 28.0836C11.9418 28.0581 12.114 27.9806 12.2547 27.8603L18.7647 22.2812H22.2812C23.5654 22.2797 24.7966 21.7689 25.7046 20.8609C26.6126 19.9528 27.1235 18.7217 27.125 17.4375V7.75C27.1235 6.46583 26.6126 5.2347 25.7046 4.32665C24.7966 3.4186 23.5654 2.90779 22.2812 2.90625ZM9.6875 14.5312C9.3043 14.5312 8.9297 14.4176 8.61108 14.2047C8.29246 13.9918 8.04413 13.6892 7.89748 13.3352C7.75084 12.9812 7.71247 12.5916 7.78723 12.2158C7.86199 11.8399 8.04652 11.4947 8.31748 11.2237C8.58845 10.9528 8.93367 10.7682 9.30951 10.6935C9.68535 10.6187 10.0749 10.6571 10.4289 10.8037C10.783 10.9504 11.0856 11.1987 11.2985 11.5173C11.5114 11.836 11.625 12.2105 11.625 12.5938C11.625 13.1076 11.4209 13.6004 11.0575 13.9638C10.6942 14.3271 10.2014 14.5312 9.6875 14.5312ZM15.5 14.5312C15.1168 14.5312 14.7422 14.4176 14.4236 14.2047C14.105 13.9918 13.8566 13.6892 13.71 13.3352C13.5633 12.9812 13.525 12.5916 13.5997 12.2158C13.6745 11.8399 13.859 11.4947 14.13 11.2237C14.4009 10.9528 14.7462 10.7682 15.122 10.6935C15.4979 10.6187 15.8874 10.6571 16.2414 10.8037C16.5955 10.9504 16.8981 11.1987 17.111 11.5173C17.3239 11.836 17.4375 12.2105 17.4375 12.5938C17.4375 13.1076 17.2334 13.6004 16.87 13.9638C16.5067 14.3271 16.0139 14.5312 15.5 14.5312ZM21.3125 14.5312C20.9293 14.5312 20.5547 14.4176 20.2361 14.2047C19.9175 13.9918 19.6691 13.6892 19.5225 13.3352C19.3758 12.9812 19.3375 12.5916 19.4122 12.2158C19.487 11.8399 19.6715 11.4947 19.9425 11.2237C20.2134 10.9528 20.5587 10.7682 20.9345 10.6935C21.3104 10.6187 21.6999 10.6571 22.0539 10.8037C22.408 10.9504 22.7106 11.1987 22.9235 11.5173C23.1364 11.836 23.25 12.2105 23.25 12.5938C23.25 13.1076 23.0459 13.6004 22.6825 13.9638C22.3192 14.3271 21.8264 14.5312 21.3125 14.5312Z" fill="currentColor"/>
</svg>
