<svg viewBox="0 0 34 34" fill="none" xmlns="http://www.w3.org/2000/svg">
<path d="M29.4387 27.9363L23.0966 21.5942C24.6523 19.7008 25.5019 17.3256 25.5 14.875C25.5 9.01638 20.7336 4.25 14.875 4.25C9.01638 4.25 4.25 9.01638 4.25 14.875C4.25 20.7336 9.01638 25.5 14.875 25.5C17.4229 25.5 19.7625 24.5969 21.5942 23.0966L27.9363 29.4387C28.035 29.5373 28.1521 29.6156 28.281 29.669C28.4098 29.7224 28.548 29.7498 28.6875 29.7498C28.827 29.7498 28.9652 29.7224 29.094 29.669C29.2229 29.6156 29.34 29.5373 29.4387 29.4387C29.5373 29.34 29.6156 29.2229 29.669 29.094C29.7224 28.9652 29.7498 28.827 29.7498 28.6875C29.7498 28.548 29.7224 28.4098 29.669 28.281C29.6156 28.1521 29.5373 28.035 29.4387 27.9363ZM6.375 14.875C6.375 10.1883 10.1883 6.375 14.875 6.375C19.5617 6.375 23.375 10.1883 23.375 14.875C23.375 19.5617 19.5617 23.375 14.875 23.375C10.1883 23.375 6.375 19.5617 6.375 14.875Z" fill="#C7C7C7"/>
<path d="M20.5998 14.4375H15.5626V9.40031C15.5626 9.25113 15.5033 9.10806 15.3978 9.00257C15.2923 8.89708 15.1493 8.83781 15.0001 8.83781C14.8509 8.83781 14.7078 8.89708 14.6023 9.00257C14.4968 9.10806 14.4376 9.25113 14.4376 9.40031V14.4375H9.40039C9.25121 14.4375 9.10813 14.4968 9.00264 14.6023C8.89715 14.7077 8.83789 14.8508 8.83789 15C8.83789 15.1492 8.89715 15.2923 9.00264 15.3977C9.10813 15.5032 9.25121 15.5625 9.40039 15.5625H14.4376V20.5997C14.4376 20.7489 14.4968 20.8919 14.6023 20.9974C14.7078 21.1029 14.8509 21.1622 15.0001 21.1622C15.1493 21.1622 15.2923 21.1029 15.3978 20.9974C15.5033 20.8919 15.5626 20.7489 15.5626 20.5997V15.5625H20.5998C20.749 15.5625 20.892 15.5032 20.9975 15.3977C21.103 15.2923 21.1623 15.1492 21.1623 15C21.1623 14.8508 21.103 14.7077 20.9975 14.6023C20.892 14.4968 20.749 14.4375 20.5998 14.4375Z" fill="#C7C7C7"/>
</svg>
