<svg viewBox="0 0 24 24" fill="none" xmlns="http://www.w3.org/2000/svg">
<path d="M1.50117 11.3637L6.73286 13.1403L19.1549 5.54625C19.3352 5.43658 19.5196 5.6811 19.3645 5.82408L9.96042 14.4799L9.6111 19.3257C9.6054 19.4069 9.6245 19.4879 9.66588 19.558C9.70726 19.628 9.76897 19.6839 9.84281 19.7181C9.91666 19.7522 9.99915 19.7632 10.0793 19.7494C10.1595 19.7356 10.2337 19.6978 10.2919 19.6409L13.1872 16.7936L18.4806 20.8002C19.0509 21.2324 19.8771 20.9277 20.0306 20.2291L23.7164 3.49419C23.9268 2.53965 22.9909 1.73378 22.0786 2.0831L1.47517 9.97288C0.828525 10.2207 0.846397 11.1411 1.50117 11.3637Z" fill="currentColor"/>
</svg>
