<svg viewBox="0 0 24 24" fill="none" xmlns="http://www.w3.org/2000/svg">
<path d="M12 21C16.962 21 21 16.962 21 12C21 7.03801 16.962 3 12 3C7.03796 3 3 7.03801 3 12C3 16.962 7.03801 21 12 21ZM12 4.19998C16.302 4.19998 19.8 7.69797 19.8 12C19.8 16.302 16.302 19.8 12 19.8C7.69797 19.8 4.19998 16.302 4.19998 12C4.19998 7.69797 7.69802 4.19998 12 4.19998Z" fill="black"/>
<path d="M14.6249 14.8681C14.7359 14.9581 14.8679 15.0001 14.9999 15.0001C15.0898 15.0003 15.1786 14.9801 15.2596 14.9412C15.3407 14.9022 15.4119 14.8455 15.4679 14.7751C15.6749 14.5171 15.6328 14.1391 15.3749 13.9321L12.5999 11.7121V7.20009C12.5999 6.87008 12.3299 6.6001 11.9999 6.6001C11.6699 6.6001 11.3999 6.87008 11.3999 7.20009V12.0001C11.3999 12.1831 11.4839 12.3541 11.6249 12.4681L14.6249 14.8681Z" fill="black"/>
</svg>
