<?xml version="1.0" encoding="UTF-8"?><!DOCTYPE svg PUBLIC "-//W3C//DTD SVG 1.1//EN" "http://www.w3.org/Graphics/SVG/1.1/DTD/svg11.dtd"><svg xmlns="http://www.w3.org/2000/svg" xmlns:xlink="http://www.w3.org/1999/xlink"><defs>
<clipPath id="clip0_41_3500">
<rect width="24" height="24" fill="white"/>
</clipPath>

<clipPath id="clip0_25_3673">
<rect width="24" height="24" fill="white"/>
</clipPath>
</defs><symbol id="arrow" viewBox="0 0 6 11"><g fill="none">
<path d="M5.81253 5.49997C5.81259 5.56153 5.80049 5.6225 5.77692 5.67938C5.75335 5.73625 5.71878 5.78791 5.67519 5.83138L0.987685 10.5189C0.804521 10.702 0.50792 10.702 0.324873 10.5189C0.141826 10.3357 0.141709 10.0391 0.324873 9.85606L4.68097 5.49997L0.324873 1.14388C0.141709 0.960713 0.141709 0.664111 0.324873 0.481064C0.508037 0.298017 0.804638 0.2979 0.987685 0.481064L5.67519 5.16856C5.71878 5.21204 5.75335 5.26369 5.77692 5.32056C5.80049 5.37744 5.81259 5.43841 5.81253 5.49997Z" fill="currentColor"/>
</g></symbol><symbol id="burger" viewBox="0 0 27 18"><g fill="none">
<rect width="27" height="1.58824" rx="0.794118" fill="black"/>
<rect y="7.94092" width="27" height="1.58824" rx="0.794118" fill="black"/>
<rect y="15.8818" width="27" height="1.58824" rx="0.794118" fill="black"/>
</g></symbol><symbol id="car" viewBox="0 0 24 24"><g fill="none">
<g id="Frame" clip-path="url(#clip0_41_3500)">
<g id="Group">
<path id="Vector" d="M23.7395 11.4814L22.2856 10.1327C22.1864 10.0408 22.1104 9.92674 22.0637 9.79989L20.9218 6.69934C20.7585 6.26237 20.466 5.88555 20.0831 5.6191C19.7002 5.35264 19.2452 5.20921 18.7787 5.20792H17.0487V4.72257C17.0487 4.51385 16.9658 4.31368 16.8182 4.16609C16.6706 4.0185 16.4704 3.93559 16.2617 3.93559H5.80638C5.65081 3.93376 5.50066 3.99267 5.38785 4.0998C5.27503 4.20693 5.20845 4.35384 5.20225 4.50929C5.2008 4.587 5.21485 4.66422 5.24358 4.73643C5.27232 4.80865 5.31515 4.87441 5.36959 4.92988C5.42403 4.98535 5.48898 5.02941 5.56064 5.05949C5.63231 5.08957 5.70925 5.10507 5.78697 5.10507H15.8792V10.1792C15.8792 10.3879 15.9621 10.588 16.1097 10.7356C16.2572 10.8832 16.4574 10.9661 16.6661 10.9661H21.4189L22.8304 12.2364V16.9751H21.5508C21.4233 16.4175 21.1104 15.9196 20.6631 15.5631C20.2159 15.2065 19.6608 15.0123 19.0888 15.0123C18.5168 15.0123 17.9618 15.2065 17.5145 15.5631C17.0673 15.9196 16.7543 16.4175 16.6269 16.9751H12.6891C12.5616 16.4175 12.2487 15.9196 11.8014 15.5631C11.3542 15.2065 10.7991 15.0123 10.2272 15.0123C9.65517 15.0123 9.10012 15.2065 8.65287 15.5631C8.20562 15.9196 7.89267 16.4175 7.76523 16.9751H5.80633C5.65074 16.9733 5.50058 17.0322 5.38777 17.1394C5.27496 17.2465 5.2084 17.3935 5.20225 17.5489C5.2008 17.6266 5.21485 17.7039 5.24358 17.7761C5.27232 17.8483 5.31516 17.914 5.3696 17.9695C5.42404 18.025 5.48899 18.069 5.56065 18.0991C5.63231 18.1292 5.70925 18.1447 5.78697 18.1447H7.77508C7.91052 18.6926 8.22559 19.1794 8.67001 19.5273C9.11443 19.8752 9.66258 20.0643 10.227 20.0643C10.7914 20.0643 11.3396 19.8752 11.784 19.5273C12.2284 19.1794 12.5435 18.6926 12.6789 18.1447H16.6368C16.7723 18.6926 17.0874 19.1794 17.5318 19.5273C17.9762 19.8752 18.5243 20.0643 19.0888 20.0643C19.6532 20.0643 20.2013 19.8752 20.6457 19.5273C21.0902 19.1794 21.4052 18.6926 21.5407 18.1447H23.213C23.4217 18.1447 23.6219 18.0618 23.7695 17.9142C23.9171 17.7666 24 17.5664 24 17.3577V12.0663C23.9999 11.956 23.9767 11.847 23.9318 11.7462C23.887 11.6454 23.8215 11.5552 23.7395 11.4814ZM17.0487 9.79679V6.37735H18.7787C19.0065 6.37798 19.2286 6.44801 19.4156 6.57811C19.6025 6.70821 19.7454 6.8922 19.8251 7.10556L20.8219 9.79679H17.0487ZM10.227 18.8946C9.95874 18.8946 9.69649 18.8151 9.47342 18.666C9.25036 18.517 9.0765 18.3051 8.97384 18.0573C8.87118 17.8094 8.84432 17.5367 8.89666 17.2736C8.949 17.0104 9.07819 16.7687 9.2679 16.579C9.4576 16.3894 9.6993 16.2602 9.96242 16.2078C10.2255 16.1555 10.4983 16.1824 10.7461 16.285C10.994 16.3877 11.2058 16.5616 11.3549 16.7846C11.5039 17.0077 11.5834 17.27 11.5834 17.5382C11.583 17.8979 11.44 18.2426 11.1857 18.4969C10.9314 18.7512 10.5866 18.8942 10.227 18.8946ZM19.0888 18.8946C18.8205 18.8946 18.5582 18.8151 18.3352 18.666C18.1121 18.517 17.9382 18.3052 17.8356 18.0573C17.7329 17.8094 17.706 17.5367 17.7584 17.2736C17.8107 17.0105 17.9399 16.7688 18.1296 16.5791C18.3193 16.3894 18.561 16.2602 18.8241 16.2078C19.0872 16.1555 19.36 16.1824 19.6078 16.285C19.8557 16.3877 20.0675 16.5616 20.2166 16.7846C20.3656 17.0077 20.4452 17.27 20.4452 17.5382C20.4447 17.8979 20.3017 18.2426 20.0474 18.4969C19.7932 18.7512 19.4484 18.8942 19.0888 18.8946Z" fill="black"/>
<path id="Vector_2" d="M3.28994 8.37666H9.92153C10.0766 8.37666 10.2254 8.31504 10.3351 8.20537C10.4447 8.0957 10.5063 7.94695 10.5063 7.79184C10.5063 7.63674 10.4447 7.48799 10.3351 7.37832C10.2254 7.26864 10.0766 7.20703 9.92153 7.20703H3.28994C3.13483 7.20703 2.98609 7.26864 2.87641 7.37832C2.76674 7.48799 2.70512 7.63674 2.70512 7.79184C2.70512 7.94695 2.76674 8.0957 2.87641 8.20537C2.98609 8.31504 3.13483 8.37666 3.28994 8.37666ZM10.5063 11.0403C10.5063 10.8852 10.4447 10.7365 10.3351 10.6268C10.2254 10.5171 10.0766 10.4555 9.92153 10.4555H0.584921C0.507685 10.4548 0.431077 10.4694 0.35952 10.4985C0.287964 10.5276 0.222876 10.5706 0.168016 10.6249C0.113156 10.6793 0.0696093 10.744 0.0398915 10.8153C0.0101737 10.8866 -0.00512695 10.9631 -0.00512695 11.0403C-0.00512695 11.1175 0.0101737 11.194 0.0398915 11.2653C0.0696093 11.3366 0.113156 11.4013 0.168016 11.4557C0.222876 11.51 0.287964 11.553 0.35952 11.5821C0.431077 11.6112 0.507685 11.6258 0.584921 11.6251H9.92153C10.0766 11.6251 10.2254 11.5635 10.335 11.4538C10.4447 11.3442 10.5063 11.1954 10.5063 11.0403ZM6.80345 14.2888C6.80345 14.212 6.78833 14.136 6.75894 14.065C6.72955 13.9941 6.68648 13.9296 6.63218 13.8753C6.57788 13.821 6.51341 13.7779 6.44247 13.7486C6.37152 13.7192 6.29548 13.704 6.21869 13.704H2.15411C1.99992 13.7054 1.85252 13.7676 1.74397 13.8772C1.63543 13.9867 1.57453 14.1346 1.57453 14.2888C1.57453 14.443 1.63543 14.591 1.74397 14.7005C1.85252 14.81 1.99992 14.8722 2.15411 14.8736H6.21869C6.37378 14.8736 6.52252 14.812 6.63218 14.7023C6.74184 14.5926 6.80345 14.4439 6.80345 14.2888Z" fill="black"/>
</g>
</g>

</g></symbol><symbol id="cart" viewBox="0 0 22 24"><g fill="none">
<path d="M4.16492 24H17.2505C19.5471 24 21.4154 22.1317 21.4154 19.8351V7.38462C21.4154 6.97846 21.0831 6.64615 20.6769 6.64615H16.2462V5.53846C16.2462 2.48492 13.7612 0 10.7077 0C7.65415 0 5.16923 2.48492 5.16923 5.53846V6.64615H0.738462C0.332308 6.64615 0 6.97846 0 7.38462V19.8351C0 22.1317 1.86831 24 4.16492 24ZM6.64615 5.53846C6.64615 3.29723 8.46646 1.47692 10.7077 1.47692C12.9489 1.47692 14.7692 3.29723 14.7692 5.53846V6.64615H6.64615V5.53846ZM1.47692 8.12308H5.16923V9.96923C5.16923 10.3754 5.50154 10.7077 5.90769 10.7077C6.31385 10.7077 6.64615 10.3754 6.64615 9.96923V8.12308H14.7692V9.96923C14.7692 10.3754 15.1015 10.7077 15.5077 10.7077C15.9138 10.7077 16.2462 10.3754 16.2462 9.96923V8.12308H19.9385V19.8351C19.9385 21.3157 18.7311 22.5231 17.2505 22.5231H4.16492C2.68431 22.5231 1.47692 21.3157 1.47692 19.8351V8.12308Z" fill="currentColor"/>
</g></symbol><symbol id="check" viewBox="0 0 14 12"><g fill="none">
<path d="M13.6747 1.28821C13.2415 0.854475 12.5381 0.854749 12.1044 1.28821L5.037 8.35588L1.89585 5.21476C1.46211 4.78102 0.75903 4.78102 0.325291 5.21476C-0.108448 5.64849 -0.108448 6.35158 0.325291 6.78532L4.25156 10.7116C4.46829 10.9283 4.75248 11.037 5.0367 11.037C5.32092 11.037 5.60539 10.9286 5.82212 10.7116L13.6747 2.85875C14.1084 2.42531 14.1084 1.72193 13.6747 1.28821Z" fill="currentColor"/>
</g></symbol><symbol id="close" viewBox="0 0 18 18"><g fill="none">
<path d="M9.59613 9L13.7136 4.8825C13.7551 4.84388 13.7883 4.7973 13.8114 4.74555C13.8344 4.6938 13.8468 4.63794 13.8478 4.5813C13.8488 4.52465 13.8384 4.46838 13.8172 4.41585C13.796 4.36332 13.7644 4.3156 13.7243 4.27554C13.6843 4.23548 13.6366 4.2039 13.584 4.18268C13.5315 4.16146 13.4752 4.15104 13.4186 4.15204C13.3619 4.15304 13.3061 4.16544 13.2543 4.1885C13.2026 4.21156 13.156 4.2448 13.1174 4.28625L8.99988 8.40375L4.88238 4.28625C4.80241 4.21173 4.69663 4.17116 4.58734 4.17309C4.47804 4.17502 4.37376 4.21929 4.29647 4.29659C4.21917 4.37388 4.1749 4.47816 4.17297 4.58746C4.17104 4.69675 4.21161 4.80253 4.28613 4.8825L8.40363 9L4.28613 13.1175C4.24468 13.1561 4.21144 13.2027 4.18838 13.2544C4.16532 13.3062 4.15292 13.3621 4.15192 13.4187C4.15092 13.4754 4.16134 13.5316 4.18256 13.5841C4.20378 13.6367 4.23536 13.6844 4.27542 13.7245C4.31548 13.7645 4.3632 13.7961 4.41573 13.8173C4.46826 13.8385 4.52453 13.849 4.58117 13.848C4.63782 13.847 4.69368 13.8346 4.74543 13.8115C4.79718 13.7884 4.84376 13.7552 4.88238 13.7137L8.99988 9.59625L13.1174 13.7137C13.156 13.7552 13.2026 13.7884 13.2543 13.8115C13.3061 13.8346 13.3619 13.847 13.4186 13.848C13.4752 13.849 13.5315 13.8385 13.584 13.8173C13.6366 13.7961 13.6843 13.7645 13.7243 13.7245C13.7644 13.6844 13.796 13.6367 13.8172 13.5841C13.8384 13.5316 13.8488 13.4754 13.8478 13.4187C13.8468 13.3621 13.8344 13.3062 13.8114 13.2544C13.7883 13.2027 13.7551 13.1561 13.7136 13.1175L9.59613 9Z" fill="currentColor"/>
</g></symbol><symbol id="comment" viewBox="0 0 25 27"><g fill="none">
<path d="M19.2812 0.90625H5.71875C4.43458 0.907788 3.20345 1.4186 2.2954 2.32665C1.38735 3.2347 0.876538 4.46583 0.875 5.75V15.4375C0.876538 16.7217 1.38735 17.9528 2.2954 18.8609C3.20345 19.7689 4.43458 20.2797 5.71875 20.2812H7.65625V25.125C7.65642 25.3101 7.70963 25.4913 7.80956 25.6471C7.9095 25.8029 8.05198 25.9268 8.22015 26.0042C8.38832 26.0816 8.57513 26.1091 8.75848 26.0836C8.94182 26.0581 9.11402 25.9806 9.25469 25.8603L15.7647 20.2812H19.2812C20.5654 20.2797 21.7966 19.7689 22.7046 18.8609C23.6126 17.9528 24.1235 16.7217 24.125 15.4375V5.75C24.1235 4.46583 23.6126 3.2347 22.7046 2.32665C21.7966 1.4186 20.5654 0.907788 19.2812 0.90625ZM6.6875 12.5312C6.3043 12.5312 5.9297 12.4176 5.61108 12.2047C5.29246 11.9918 5.04413 11.6892 4.89748 11.3352C4.75084 10.9812 4.71247 10.5916 4.78723 10.2158C4.86199 9.83992 5.04652 9.4947 5.31748 9.22373C5.58845 8.95277 5.93367 8.76824 6.30951 8.69348C6.68535 8.61872 7.07492 8.65709 7.42895 8.80373C7.78298 8.95038 8.08558 9.19871 8.29847 9.51733C8.51137 9.83595 8.625 10.2105 8.625 10.5938C8.625 11.1076 8.42087 11.6004 8.05752 11.9638C7.69417 12.3271 7.20136 12.5312 6.6875 12.5312ZM12.5 12.5312C12.1168 12.5312 11.7422 12.4176 11.4236 12.2047C11.105 11.9918 10.8566 11.6892 10.71 11.3352C10.5633 10.9812 10.525 10.5916 10.5997 10.2158C10.6745 9.83992 10.859 9.4947 11.13 9.22373C11.4009 8.95277 11.7462 8.76824 12.122 8.69348C12.4979 8.61872 12.8874 8.65709 13.2414 8.80373C13.5955 8.95038 13.8981 9.19871 14.111 9.51733C14.3239 9.83595 14.4375 10.2105 14.4375 10.5938C14.4375 11.1076 14.2334 11.6004 13.87 11.9638C13.5067 12.3271 13.0139 12.5312 12.5 12.5312ZM18.3125 12.5312C17.9293 12.5312 17.5547 12.4176 17.2361 12.2047C16.9175 11.9918 16.6691 11.6892 16.5225 11.3352C16.3758 10.9812 16.3375 10.5916 16.4122 10.2158C16.487 9.83992 16.6715 9.4947 16.9425 9.22373C17.2134 8.95277 17.5587 8.76824 17.9345 8.69348C18.3104 8.61872 18.6999 8.65709 19.0539 8.80373C19.408 8.95038 19.7106 9.19871 19.9235 9.51733C20.1364 9.83595 20.25 10.2105 20.25 10.5938C20.25 11.1076 20.0459 11.6004 19.6825 11.9638C19.3192 12.3271 18.8264 12.5312 18.3125 12.5312Z" fill="currentColor"/>
</g></symbol><symbol id="delete" viewBox="0 0 24 24"><g fill="none">
<g clip-path="url(#clip0_25_3673)">
<path d="M15.3125 8.6953C15.0021 8.6953 14.7505 8.94694 14.7505 9.25736V19.8803C14.7505 20.1905 15.0021 20.4423 15.3125 20.4423C15.623 20.4423 15.8746 20.1905 15.8746 19.8803V9.25736C15.8746 8.94694 15.623 8.6953 15.3125 8.6953ZM8.68022 8.6953C8.3698 8.6953 8.11816 8.94694 8.11816 9.25736V19.8803C8.11816 20.1905 8.3698 20.4423 8.68022 20.4423C8.99071 20.4423 9.24228 20.1905 9.24228 19.8803V9.25736C9.24228 8.94694 8.99071 8.6953 8.68022 8.6953Z" fill="currentColor"/>
<path d="M3.84633 7.14503V20.993C3.84633 21.8115 4.14647 22.5801 4.67076 23.1316C4.92892 23.4053 5.24015 23.6234 5.58543 23.7727C5.93072 23.922 6.30281 23.9993 6.679 24H17.3134C17.6896 23.9994 18.0617 23.922 18.407 23.7727C18.7523 23.6234 19.0635 23.4053 19.3216 23.1316C19.846 22.5801 20.1461 21.8115 20.1461 20.993V7.14503C21.1883 6.86839 21.8637 5.86151 21.7243 4.79208C21.5846 3.72282 20.6737 2.92301 19.5952 2.92278H16.7175V2.22021C16.7191 1.92773 16.6626 1.63785 16.5513 1.36739C16.4399 1.09693 16.276 0.851275 16.0689 0.644699C15.8618 0.438143 15.6157 0.274792 15.345 0.164131C15.0742 0.0534697 14.7842 -0.00229572 14.4917 7.28573e-05H9.50076C9.20826 -0.00230318 8.9182 0.0534586 8.64742 0.16412C8.37665 0.274781 8.13056 0.438136 7.92345 0.644699C7.7164 0.851275 7.55244 1.09693 7.44111 1.36739C7.32977 1.63785 7.27327 1.92773 7.27489 2.22021V2.92278H4.39726C3.31878 2.92301 2.40785 3.72282 2.26818 4.79208C2.12879 5.86151 2.8041 6.86839 3.84633 7.14503ZM17.3134 22.8759H6.67905C5.71804 22.8759 4.97045 22.0503 4.97045 20.993V7.19444H19.0219V20.993C19.0219 22.0504 18.2744 22.8759 17.3134 22.8759ZM8.39901 2.22021C8.39717 2.0753 8.42447 1.9315 8.47927 1.79734C8.53407 1.66319 8.61527 1.5414 8.71804 1.43923C8.82077 1.33699 8.94299 1.25643 9.07744 1.20231C9.21189 1.1482 9.35585 1.12163 9.50076 1.12419H14.4917C14.6366 1.12163 14.7805 1.1482 14.915 1.20231C15.0495 1.25643 15.1717 1.33699 15.2744 1.43923C15.3772 1.5414 15.4584 1.66318 15.5132 1.79734C15.568 1.9315 15.5952 2.0753 15.5934 2.22021V2.92278H8.39901V2.22021ZM4.39726 4.0469H19.5953C20.154 4.0469 20.607 4.49987 20.607 5.05861C20.607 5.61735 20.154 6.07032 19.5953 6.07032H4.3972C3.83846 6.07032 3.3855 5.61735 3.3855 5.05861C3.3855 4.49987 3.83852 4.0469 4.39726 4.0469Z" fill="currentColor"/>
<path d="M11.9966 8.6953C11.6862 8.6953 11.4346 8.94694 11.4346 9.25736V19.8803C11.4346 20.1905 11.6862 20.4423 11.9966 20.4423C12.3071 20.4423 12.5587 20.1905 12.5587 19.8803V9.25736C12.5587 8.94694 12.3071 8.6953 11.9966 8.6953Z" fill="currentColor"/>
</g>

</g></symbol><symbol id="filters" viewBox="0 0 30 30"><g fill="none">
<path fill-rule="evenodd" clip-rule="evenodd" d="M12.8125 8.75C12.8125 8.50136 12.9113 8.2629 13.0871 8.08709C13.2629 7.91127 13.5014 7.8125 13.75 7.8125H26.25C26.4986 7.8125 26.7371 7.91127 26.9129 8.08709C27.0887 8.2629 27.1875 8.50136 27.1875 8.75C27.1875 8.99864 27.0887 9.2371 26.9129 9.41291C26.7371 9.58873 26.4986 9.6875 26.25 9.6875H13.75C13.5014 9.6875 13.2629 9.58873 13.0871 9.41291C12.9113 9.2371 12.8125 8.99864 12.8125 8.75Z" fill="currentColor"/>
<path d="M3.75 8.75C3.75 9.41304 4.01339 10.0489 4.48223 10.5178C4.95107 10.9866 5.58696 11.25 6.25 11.25C6.91304 11.25 7.54893 10.9866 8.01777 10.5178C8.48661 10.0489 8.75 9.41304 8.75 8.75C8.75 8.08696 8.48661 7.45107 8.01777 6.98223C7.54893 6.51339 6.91304 6.25 6.25 6.25C5.58696 6.25 4.95107 6.51339 4.48223 6.98223C4.01339 7.45107 3.75 8.08696 3.75 8.75Z" fill="currentColor"/>
<path fill-rule="evenodd" clip-rule="evenodd" d="M6.25 7.1875C6.6644 7.1875 7.06183 7.35212 7.35485 7.64515C7.64788 7.93817 7.8125 8.3356 7.8125 8.75C7.8125 9.1644 7.64788 9.56183 7.35485 9.85485C7.06183 10.1479 6.6644 10.3125 6.25 10.3125C5.8356 10.3125 5.43817 10.1479 5.14515 9.85485C4.85212 9.56183 4.6875 9.1644 4.6875 8.75C4.6875 8.3356 4.85212 7.93817 5.14515 7.64515C5.43817 7.35212 5.8356 7.1875 6.25 7.1875ZM9.6875 8.75C9.6875 7.83832 9.32534 6.96398 8.68068 6.31932C8.03602 5.67466 7.16168 5.3125 6.25 5.3125C5.33832 5.3125 4.46398 5.67466 3.81932 6.31932C3.17466 6.96398 2.8125 7.83832 2.8125 8.75C2.8125 9.66168 3.17466 10.536 3.81932 11.1807C4.46398 11.8253 5.33832 12.1875 6.25 12.1875C7.16168 12.1875 8.03602 11.8253 8.68068 11.1807C9.32534 10.536 9.6875 9.66168 9.6875 8.75ZM17.1875 21.25C17.1875 21.0014 17.0887 20.7629 16.9129 20.5871C16.7371 20.4113 16.4986 20.3125 16.25 20.3125H3.75C3.50136 20.3125 3.2629 20.4113 3.08709 20.5871C2.91127 20.7629 2.8125 21.0014 2.8125 21.25C2.8125 21.4986 2.91127 21.7371 3.08709 21.9129C3.2629 22.0887 3.50136 22.1875 3.75 22.1875H16.25C16.4986 22.1875 16.7371 22.0887 16.9129 21.9129C17.0887 21.7371 17.1875 21.4986 17.1875 21.25Z" fill="currentColor"/>
<path d="M26.25 21.25C26.25 21.913 25.9866 22.5489 25.5178 23.0178C25.0489 23.4866 24.413 23.75 23.75 23.75C23.087 23.75 22.4511 23.4866 21.9822 23.0178C21.5134 22.5489 21.25 21.913 21.25 21.25C21.25 20.587 21.5134 19.9511 21.9822 19.4822C22.4511 19.0134 23.087 18.75 23.75 18.75C24.413 18.75 25.0489 19.0134 25.5178 19.4822C25.9866 19.9511 26.25 20.587 26.25 21.25Z" fill="currentColor"/>
<path fill-rule="evenodd" clip-rule="evenodd" d="M23.75 19.6875C23.3356 19.6875 22.9382 19.8521 22.6451 20.1451C22.3521 20.4382 22.1875 20.8356 22.1875 21.25C22.1875 21.6644 22.3521 22.0618 22.6451 22.3549C22.9382 22.6479 23.3356 22.8125 23.75 22.8125C24.1644 22.8125 24.5618 22.6479 24.8549 22.3549C25.1479 22.0618 25.3125 21.6644 25.3125 21.25C25.3125 20.8356 25.1479 20.4382 24.8549 20.1451C24.5618 19.8521 24.1644 19.6875 23.75 19.6875ZM20.3125 21.25C20.3125 20.3383 20.6747 19.464 21.3193 18.8193C21.964 18.1747 22.8383 17.8125 23.75 17.8125C24.6617 17.8125 25.536 18.1747 26.1807 18.8193C26.8253 19.464 27.1875 20.3383 27.1875 21.25C27.1875 22.1617 26.8253 23.036 26.1807 23.6807C25.536 24.3253 24.6617 24.6875 23.75 24.6875C22.8383 24.6875 21.964 24.3253 21.3193 23.6807C20.6747 23.036 20.3125 22.1617 20.3125 21.25Z" fill="currentColor"/>
</g></symbol><symbol id="inst" viewBox="0 0 21 21"><g fill="none">
<path d="M15.3155 0H5.68452C2.55002 0 0 2.55002 0 5.68452V15.3156C0 18.45 2.55002 21 5.68452 21H15.3156C18.45 21 21 18.45 21 15.3156V5.68452C21 2.55002 18.45 0 15.3155 0ZM10.5 16.242C7.3338 16.242 4.75798 13.6662 4.75798 10.5C4.75798 7.33376 7.33376 4.75798 10.5 4.75798C13.6662 4.75798 16.242 7.33376 16.242 10.5C16.242 13.6662 13.6662 16.242 10.5 16.242ZM16.3793 6.11215C15.4437 6.11215 14.6826 5.3511 14.6826 4.41541C14.6826 3.47972 15.4437 2.7186 16.3793 2.7186C17.315 2.7186 18.0762 3.47977 18.0762 4.41541C18.0762 5.35106 17.315 6.11215 16.3793 6.11215Z" fill="currentColor"/>
<path d="M10.5707 6.02803C8.05056 6.02803 6 8.04036 6 10.514C6 12.9875 8.05056 15 10.5707 15C13.0911 15 15.1415 12.9875 15.1415 10.514C15.1415 8.04036 13.0911 6.02803 10.5707 6.02803ZM16.5281 4C16.268 4 16.0563 4.20782 16.0563 4.46304C16.0563 4.7183 16.268 4.92608 16.5281 4.92608C16.7883 4.92608 17 4.71846 17 4.46304C17 4.20766 16.7883 4 16.5281 4Z" fill="currentColor"/>
</g></symbol><symbol id="messages" viewBox="0 0 31 31"><g fill="none">
<path d="M22.2812 2.90625H8.71875C7.43458 2.90779 6.20345 3.4186 5.2954 4.32665C4.38735 5.2347 3.87654 6.46583 3.875 7.75V17.4375C3.87654 18.7217 4.38735 19.9528 5.2954 20.8609C6.20345 21.7689 7.43458 22.2797 8.71875 22.2812H10.6562V27.125C10.6564 27.3101 10.7096 27.4913 10.8096 27.6471C10.9095 27.8029 11.052 27.9268 11.2202 28.0042C11.3883 28.0816 11.5751 28.1091 11.7585 28.0836C11.9418 28.0581 12.114 27.9806 12.2547 27.8603L18.7647 22.2812H22.2812C23.5654 22.2797 24.7966 21.7689 25.7046 20.8609C26.6126 19.9528 27.1235 18.7217 27.125 17.4375V7.75C27.1235 6.46583 26.6126 5.2347 25.7046 4.32665C24.7966 3.4186 23.5654 2.90779 22.2812 2.90625ZM9.6875 14.5312C9.3043 14.5312 8.9297 14.4176 8.61108 14.2047C8.29246 13.9918 8.04413 13.6892 7.89748 13.3352C7.75084 12.9812 7.71247 12.5916 7.78723 12.2158C7.86199 11.8399 8.04652 11.4947 8.31748 11.2237C8.58845 10.9528 8.93367 10.7682 9.30951 10.6935C9.68535 10.6187 10.0749 10.6571 10.4289 10.8037C10.783 10.9504 11.0856 11.1987 11.2985 11.5173C11.5114 11.836 11.625 12.2105 11.625 12.5938C11.625 13.1076 11.4209 13.6004 11.0575 13.9638C10.6942 14.3271 10.2014 14.5312 9.6875 14.5312ZM15.5 14.5312C15.1168 14.5312 14.7422 14.4176 14.4236 14.2047C14.105 13.9918 13.8566 13.6892 13.71 13.3352C13.5633 12.9812 13.525 12.5916 13.5997 12.2158C13.6745 11.8399 13.859 11.4947 14.13 11.2237C14.4009 10.9528 14.7462 10.7682 15.122 10.6935C15.4979 10.6187 15.8874 10.6571 16.2414 10.8037C16.5955 10.9504 16.8981 11.1987 17.111 11.5173C17.3239 11.836 17.4375 12.2105 17.4375 12.5938C17.4375 13.1076 17.2334 13.6004 16.87 13.9638C16.5067 14.3271 16.0139 14.5312 15.5 14.5312ZM21.3125 14.5312C20.9293 14.5312 20.5547 14.4176 20.2361 14.2047C19.9175 13.9918 19.6691 13.6892 19.5225 13.3352C19.3758 12.9812 19.3375 12.5916 19.4122 12.2158C19.487 11.8399 19.6715 11.4947 19.9425 11.2237C20.2134 10.9528 20.5587 10.7682 20.9345 10.6935C21.3104 10.6187 21.6999 10.6571 22.0539 10.8037C22.408 10.9504 22.7106 11.1987 22.9235 11.5173C23.1364 11.836 23.25 12.2105 23.25 12.5938C23.25 13.1076 23.0459 13.6004 22.6825 13.9638C22.3192 14.3271 21.8264 14.5312 21.3125 14.5312Z" fill="currentColor"/>
</g></symbol><symbol id="search" viewBox="0 0 24 24"><g fill="none">
<path d="M23.7896 22.7761L17.9572 16.9437C19.5217 15.145 20.469 12.7982 20.469 10.2333C20.469 4.58714 15.8765 0 10.2357 0C4.58958 0 0.00244141 4.59246 0.00244141 10.2333C0.00244141 15.8741 4.5949 20.4665 10.2357 20.4665C12.8007 20.4665 15.1475 19.5193 16.9461 17.9548L22.7785 23.7871C22.9169 23.9255 23.1031 24 23.284 24C23.465 24 23.6512 23.9308 23.7896 23.7871C24.0663 23.5104 24.0663 23.0528 23.7896 22.7761ZM1.43393 10.2333C1.43393 5.38004 5.38249 1.43681 10.2304 1.43681C15.0836 1.43681 19.0268 5.38537 19.0268 10.2333C19.0268 15.0812 15.0836 19.035 10.2304 19.035C5.38249 19.035 1.43393 15.0865 1.43393 10.2333Z" fill="currentColor"/>
</g></symbol><symbol id="searchPlus" viewBox="0 0 34 34"><g fill="none">
<path d="M29.4387 27.9363L23.0966 21.5942C24.6523 19.7008 25.5019 17.3256 25.5 14.875C25.5 9.01638 20.7336 4.25 14.875 4.25C9.01638 4.25 4.25 9.01638 4.25 14.875C4.25 20.7336 9.01638 25.5 14.875 25.5C17.4229 25.5 19.7625 24.5969 21.5942 23.0966L27.9363 29.4387C28.035 29.5373 28.1521 29.6156 28.281 29.669C28.4098 29.7224 28.548 29.7498 28.6875 29.7498C28.827 29.7498 28.9652 29.7224 29.094 29.669C29.2229 29.6156 29.34 29.5373 29.4387 29.4387C29.5373 29.34 29.6156 29.2229 29.669 29.094C29.7224 28.9652 29.7498 28.827 29.7498 28.6875C29.7498 28.548 29.7224 28.4098 29.669 28.281C29.6156 28.1521 29.5373 28.035 29.4387 27.9363ZM6.375 14.875C6.375 10.1883 10.1883 6.375 14.875 6.375C19.5617 6.375 23.375 10.1883 23.375 14.875C23.375 19.5617 19.5617 23.375 14.875 23.375C10.1883 23.375 6.375 19.5617 6.375 14.875Z" fill="#C7C7C7"/>
<path d="M20.5998 14.4375H15.5626V9.40031C15.5626 9.25113 15.5033 9.10806 15.3978 9.00257C15.2923 8.89708 15.1493 8.83781 15.0001 8.83781C14.8509 8.83781 14.7078 8.89708 14.6023 9.00257C14.4968 9.10806 14.4376 9.25113 14.4376 9.40031V14.4375H9.40039C9.25121 14.4375 9.10813 14.4968 9.00264 14.6023C8.89715 14.7077 8.83789 14.8508 8.83789 15C8.83789 15.1492 8.89715 15.2923 9.00264 15.3977C9.10813 15.5032 9.25121 15.5625 9.40039 15.5625H14.4376V20.5997C14.4376 20.7489 14.4968 20.8919 14.6023 20.9974C14.7078 21.1029 14.8509 21.1622 15.0001 21.1622C15.1493 21.1622 15.2923 21.1029 15.3978 20.9974C15.5033 20.8919 15.5626 20.7489 15.5626 20.5997V15.5625H20.5998C20.749 15.5625 20.892 15.5032 20.9975 15.3977C21.103 15.2923 21.1623 15.1492 21.1623 15C21.1623 14.8508 21.103 14.7077 20.9975 14.6023C20.892 14.4968 20.749 14.4375 20.5998 14.4375Z" fill="#C7C7C7"/>
</g></symbol><symbol id="tg" viewBox="0 0 24 24"><g fill="none">
<path d="M1.50117 11.3637L6.73286 13.1403L19.1549 5.54625C19.3352 5.43658 19.5196 5.6811 19.3645 5.82408L9.96042 14.4799L9.6111 19.3257C9.6054 19.4069 9.6245 19.4879 9.66588 19.558C9.70726 19.628 9.76897 19.6839 9.84281 19.7181C9.91666 19.7522 9.99915 19.7632 10.0793 19.7494C10.1595 19.7356 10.2337 19.6978 10.2919 19.6409L13.1872 16.7936L18.4806 20.8002C19.0509 21.2324 19.8771 20.9277 20.0306 20.2291L23.7164 3.49419C23.9268 2.53965 22.9909 1.73378 22.0786 2.0831L1.47517 9.97288C0.828525 10.2207 0.846397 11.1411 1.50117 11.3637Z" fill="currentColor"/>
</g></symbol><symbol id="time" viewBox="0 0 24 24"><g fill="none">
<path d="M12 21C16.962 21 21 16.962 21 12C21 7.03801 16.962 3 12 3C7.03796 3 3 7.03801 3 12C3 16.962 7.03801 21 12 21ZM12 4.19998C16.302 4.19998 19.8 7.69797 19.8 12C19.8 16.302 16.302 19.8 12 19.8C7.69797 19.8 4.19998 16.302 4.19998 12C4.19998 7.69797 7.69802 4.19998 12 4.19998Z" fill="black"/>
<path d="M14.6249 14.8681C14.7359 14.9581 14.8679 15.0001 14.9999 15.0001C15.0898 15.0003 15.1786 14.9801 15.2596 14.9412C15.3407 14.9022 15.4119 14.8455 15.4679 14.7751C15.6749 14.5171 15.6328 14.1391 15.3749 13.9321L12.5999 11.7121V7.20009C12.5999 6.87008 12.3299 6.6001 11.9999 6.6001C11.6699 6.6001 11.3999 6.87008 11.3999 7.20009V12.0001C11.3999 12.1831 11.4839 12.3541 11.6249 12.4681L14.6249 14.8681Z" fill="black"/>
</g></symbol><symbol id="widgetTg" viewBox="0 0 24 24"><g fill="none">
<path d="M12 24C18.629 24 24 18.629 24 12C24 5.371 18.629 0 12 0C5.371 0 0 5.371 0 12C0 18.629 5.371 24 12 24ZM5.491 11.74L17.061 7.279C17.598 7.085 18.067 7.41 17.893 8.222L17.894 8.221L15.924 17.502C15.778 18.16 15.387 18.32 14.84 18.01L11.84 15.799L10.393 17.193C10.233 17.353 10.098 17.488 9.788 17.488L10.001 14.435L15.561 9.412C15.803 9.199 15.507 9.079 15.188 9.291L8.317 13.617L5.355 12.693C4.712 12.489 4.698 12.05 5.491 11.74Z" fill="#0099DB"/>
</g></symbol><symbol id="widgetWats" viewBox="0 0 24 24"><g fill="none">
<path d="M12.003 0H11.997C5.3805 0 0 5.382 0 12C0 14.625 0.846 17.058 2.2845 19.0335L0.789 23.4915L5.4015 22.017C7.299 23.274 9.5625 24 12.003 24C18.6195 24 24 18.6165 24 12C24 5.3835 18.6195 0 12.003 0ZM18.9855 16.9455C18.696 17.763 17.547 18.441 16.6305 18.639C16.0035 18.7725 15.1845 18.879 12.4275 17.736C8.901 16.275 6.63 12.6915 6.453 12.459C6.2835 12.2265 5.028 10.5615 5.028 8.8395C5.028 7.1175 5.9025 6.279 6.255 5.919C6.5445 5.6235 7.023 5.4885 7.482 5.4885C7.6305 5.4885 7.764 5.496 7.884 5.502C8.2365 5.517 8.4135 5.538 8.646 6.0945C8.9355 6.792 9.6405 8.514 9.7245 8.691C9.81 8.868 9.8955 9.108 9.7755 9.3405C9.663 9.5805 9.564 9.687 9.387 9.891C9.21 10.095 9.042 10.251 8.865 10.47C8.703 10.6605 8.52 10.8645 8.724 11.217C8.928 11.562 9.633 12.7125 10.671 13.6365C12.0105 14.829 13.0965 15.21 13.485 15.372C13.7745 15.492 14.1195 15.4635 14.331 15.2385C14.5995 14.949 14.931 14.469 15.2685 13.9965C15.5085 13.6575 15.8115 13.6155 16.1295 13.7355C16.4535 13.848 18.168 14.6955 18.5205 14.871C18.873 15.048 19.1055 15.132 19.191 15.2805C19.275 15.429 19.275 16.1265 18.9855 16.9455Z" fill="#57AB50"/>
</g></symbol></svg>