<?xml version="1.0" encoding="UTF-8"?><!DOCTYPE svg PUBLIC "-//W3C//DTD SVG 1.1//EN" "http://www.w3.org/Graphics/SVG/1.1/DTD/svg11.dtd"><svg xmlns="http://www.w3.org/2000/svg" xmlns:xlink="http://www.w3.org/1999/xlink"><symbol id="arrow" viewBox="0 0 6 11"><g fill="none">
<path d="M5.81253 5.49997C5.81259 5.56153 5.80049 5.6225 5.77692 5.67938C5.75335 5.73625 5.71878 5.78791 5.67519 5.83138L0.987685 10.5189C0.804521 10.702 0.50792 10.702 0.324873 10.5189C0.141826 10.3357 0.141709 10.0391 0.324873 9.85606L4.68097 5.49997L0.324873 1.14388C0.141709 0.960713 0.141709 0.664111 0.324873 0.481064C0.508037 0.298017 0.804638 0.2979 0.987685 0.481064L5.67519 5.16856C5.71878 5.21204 5.75335 5.26369 5.77692 5.32056C5.80049 5.37744 5.81259 5.43841 5.81253 5.49997Z" fill="currentColor"/>
</g></symbol><symbol id="burger" viewBox="0 0 27 18"><g fill="none">
<rect width="27" height="1.58824" rx="0.794118" fill="black"/>
<rect y="7.94092" width="27" height="1.58824" rx="0.794118" fill="black"/>
<rect y="15.8818" width="27" height="1.58824" rx="0.794118" fill="black"/>
</g></symbol><symbol id="cart" viewBox="0 0 22 24"><g fill="none">
<path d="M4.16492 24H17.2505C19.5471 24 21.4154 22.1317 21.4154 19.8351V7.38462C21.4154 6.97846 21.0831 6.64615 20.6769 6.64615H16.2462V5.53846C16.2462 2.48492 13.7612 0 10.7077 0C7.65415 0 5.16923 2.48492 5.16923 5.53846V6.64615H0.738462C0.332308 6.64615 0 6.97846 0 7.38462V19.8351C0 22.1317 1.86831 24 4.16492 24ZM6.64615 5.53846C6.64615 3.29723 8.46646 1.47692 10.7077 1.47692C12.9489 1.47692 14.7692 3.29723 14.7692 5.53846V6.64615H6.64615V5.53846ZM1.47692 8.12308H5.16923V9.96923C5.16923 10.3754 5.50154 10.7077 5.90769 10.7077C6.31385 10.7077 6.64615 10.3754 6.64615 9.96923V8.12308H14.7692V9.96923C14.7692 10.3754 15.1015 10.7077 15.5077 10.7077C15.9138 10.7077 16.2462 10.3754 16.2462 9.96923V8.12308H19.9385V19.8351C19.9385 21.3157 18.7311 22.5231 17.2505 22.5231H4.16492C2.68431 22.5231 1.47692 21.3157 1.47692 19.8351V8.12308Z" fill="currentColor"/>
</g></symbol><symbol id="check" viewBox="0 0 14 12"><g fill="none">
<path d="M13.6747 1.28821C13.2415 0.854475 12.5381 0.854749 12.1044 1.28821L5.037 8.35588L1.89585 5.21476C1.46211 4.78102 0.75903 4.78102 0.325291 5.21476C-0.108448 5.64849 -0.108448 6.35158 0.325291 6.78532L4.25156 10.7116C4.46829 10.9283 4.75248 11.037 5.0367 11.037C5.32092 11.037 5.60539 10.9286 5.82212 10.7116L13.6747 2.85875C14.1084 2.42531 14.1084 1.72193 13.6747 1.28821Z" fill="currentColor"/>
</g></symbol><symbol id="close" viewBox="0 0 18 18"><g fill="none">
<path d="M9.59613 9L13.7136 4.8825C13.7551 4.84388 13.7883 4.7973 13.8114 4.74555C13.8344 4.6938 13.8468 4.63794 13.8478 4.5813C13.8488 4.52465 13.8384 4.46838 13.8172 4.41585C13.796 4.36332 13.7644 4.3156 13.7243 4.27554C13.6843 4.23548 13.6366 4.2039 13.584 4.18268C13.5315 4.16146 13.4752 4.15104 13.4186 4.15204C13.3619 4.15304 13.3061 4.16544 13.2543 4.1885C13.2026 4.21156 13.156 4.2448 13.1174 4.28625L8.99988 8.40375L4.88238 4.28625C4.80241 4.21173 4.69663 4.17116 4.58734 4.17309C4.47804 4.17502 4.37376 4.21929 4.29647 4.29659C4.21917 4.37388 4.1749 4.47816 4.17297 4.58746C4.17104 4.69675 4.21161 4.80253 4.28613 4.8825L8.40363 9L4.28613 13.1175C4.24468 13.1561 4.21144 13.2027 4.18838 13.2544C4.16532 13.3062 4.15292 13.3621 4.15192 13.4187C4.15092 13.4754 4.16134 13.5316 4.18256 13.5841C4.20378 13.6367 4.23536 13.6844 4.27542 13.7245C4.31548 13.7645 4.3632 13.7961 4.41573 13.8173C4.46826 13.8385 4.52453 13.849 4.58117 13.848C4.63782 13.847 4.69368 13.8346 4.74543 13.8115C4.79718 13.7884 4.84376 13.7552 4.88238 13.7137L8.99988 9.59625L13.1174 13.7137C13.156 13.7552 13.2026 13.7884 13.2543 13.8115C13.3061 13.8346 13.3619 13.847 13.4186 13.848C13.4752 13.849 13.5315 13.8385 13.584 13.8173C13.6366 13.7961 13.6843 13.7645 13.7243 13.7245C13.7644 13.6844 13.796 13.6367 13.8172 13.5841C13.8384 13.5316 13.8488 13.4754 13.8478 13.4187C13.8468 13.3621 13.8344 13.3062 13.8114 13.2544C13.7883 13.2027 13.7551 13.1561 13.7136 13.1175L9.59613 9Z" fill="currentColor"/>
</g></symbol><symbol id="comment" viewBox="0 0 25 27"><g fill="none">
<path d="M19.2812 0.90625H5.71875C4.43458 0.907788 3.20345 1.4186 2.2954 2.32665C1.38735 3.2347 0.876538 4.46583 0.875 5.75V15.4375C0.876538 16.7217 1.38735 17.9528 2.2954 18.8609C3.20345 19.7689 4.43458 20.2797 5.71875 20.2812H7.65625V25.125C7.65642 25.3101 7.70963 25.4913 7.80956 25.6471C7.9095 25.8029 8.05198 25.9268 8.22015 26.0042C8.38832 26.0816 8.57513 26.1091 8.75848 26.0836C8.94182 26.0581 9.11402 25.9806 9.25469 25.8603L15.7647 20.2812H19.2812C20.5654 20.2797 21.7966 19.7689 22.7046 18.8609C23.6126 17.9528 24.1235 16.7217 24.125 15.4375V5.75C24.1235 4.46583 23.6126 3.2347 22.7046 2.32665C21.7966 1.4186 20.5654 0.907788 19.2812 0.90625ZM6.6875 12.5312C6.3043 12.5312 5.9297 12.4176 5.61108 12.2047C5.29246 11.9918 5.04413 11.6892 4.89748 11.3352C4.75084 10.9812 4.71247 10.5916 4.78723 10.2158C4.86199 9.83992 5.04652 9.4947 5.31748 9.22373C5.58845 8.95277 5.93367 8.76824 6.30951 8.69348C6.68535 8.61872 7.07492 8.65709 7.42895 8.80373C7.78298 8.95038 8.08558 9.19871 8.29847 9.51733C8.51137 9.83595 8.625 10.2105 8.625 10.5938C8.625 11.1076 8.42087 11.6004 8.05752 11.9638C7.69417 12.3271 7.20136 12.5312 6.6875 12.5312ZM12.5 12.5312C12.1168 12.5312 11.7422 12.4176 11.4236 12.2047C11.105 11.9918 10.8566 11.6892 10.71 11.3352C10.5633 10.9812 10.525 10.5916 10.5997 10.2158C10.6745 9.83992 10.859 9.4947 11.13 9.22373C11.4009 8.95277 11.7462 8.76824 12.122 8.69348C12.4979 8.61872 12.8874 8.65709 13.2414 8.80373C13.5955 8.95038 13.8981 9.19871 14.111 9.51733C14.3239 9.83595 14.4375 10.2105 14.4375 10.5938C14.4375 11.1076 14.2334 11.6004 13.87 11.9638C13.5067 12.3271 13.0139 12.5312 12.5 12.5312ZM18.3125 12.5312C17.9293 12.5312 17.5547 12.4176 17.2361 12.2047C16.9175 11.9918 16.6691 11.6892 16.5225 11.3352C16.3758 10.9812 16.3375 10.5916 16.4122 10.2158C16.487 9.83992 16.6715 9.4947 16.9425 9.22373C17.2134 8.95277 17.5587 8.76824 17.9345 8.69348C18.3104 8.61872 18.6999 8.65709 19.0539 8.80373C19.408 8.95038 19.7106 9.19871 19.9235 9.51733C20.1364 9.83595 20.25 10.2105 20.25 10.5938C20.25 11.1076 20.0459 11.6004 19.6825 11.9638C19.3192 12.3271 18.8264 12.5312 18.3125 12.5312Z" fill="currentColor"/>
</g></symbol><symbol id="filters" viewBox="0 0 30 30"><g fill="none">
<path fill-rule="evenodd" clip-rule="evenodd" d="M12.8125 8.75C12.8125 8.50136 12.9113 8.2629 13.0871 8.08709C13.2629 7.91127 13.5014 7.8125 13.75 7.8125H26.25C26.4986 7.8125 26.7371 7.91127 26.9129 8.08709C27.0887 8.2629 27.1875 8.50136 27.1875 8.75C27.1875 8.99864 27.0887 9.2371 26.9129 9.41291C26.7371 9.58873 26.4986 9.6875 26.25 9.6875H13.75C13.5014 9.6875 13.2629 9.58873 13.0871 9.41291C12.9113 9.2371 12.8125 8.99864 12.8125 8.75Z" fill="currentColor"/>
<path d="M3.75 8.75C3.75 9.41304 4.01339 10.0489 4.48223 10.5178C4.95107 10.9866 5.58696 11.25 6.25 11.25C6.91304 11.25 7.54893 10.9866 8.01777 10.5178C8.48661 10.0489 8.75 9.41304 8.75 8.75C8.75 8.08696 8.48661 7.45107 8.01777 6.98223C7.54893 6.51339 6.91304 6.25 6.25 6.25C5.58696 6.25 4.95107 6.51339 4.48223 6.98223C4.01339 7.45107 3.75 8.08696 3.75 8.75Z" fill="currentColor"/>
<path fill-rule="evenodd" clip-rule="evenodd" d="M6.25 7.1875C6.6644 7.1875 7.06183 7.35212 7.35485 7.64515C7.64788 7.93817 7.8125 8.3356 7.8125 8.75C7.8125 9.1644 7.64788 9.56183 7.35485 9.85485C7.06183 10.1479 6.6644 10.3125 6.25 10.3125C5.8356 10.3125 5.43817 10.1479 5.14515 9.85485C4.85212 9.56183 4.6875 9.1644 4.6875 8.75C4.6875 8.3356 4.85212 7.93817 5.14515 7.64515C5.43817 7.35212 5.8356 7.1875 6.25 7.1875ZM9.6875 8.75C9.6875 7.83832 9.32534 6.96398 8.68068 6.31932C8.03602 5.67466 7.16168 5.3125 6.25 5.3125C5.33832 5.3125 4.46398 5.67466 3.81932 6.31932C3.17466 6.96398 2.8125 7.83832 2.8125 8.75C2.8125 9.66168 3.17466 10.536 3.81932 11.1807C4.46398 11.8253 5.33832 12.1875 6.25 12.1875C7.16168 12.1875 8.03602 11.8253 8.68068 11.1807C9.32534 10.536 9.6875 9.66168 9.6875 8.75ZM17.1875 21.25C17.1875 21.0014 17.0887 20.7629 16.9129 20.5871C16.7371 20.4113 16.4986 20.3125 16.25 20.3125H3.75C3.50136 20.3125 3.2629 20.4113 3.08709 20.5871C2.91127 20.7629 2.8125 21.0014 2.8125 21.25C2.8125 21.4986 2.91127 21.7371 3.08709 21.9129C3.2629 22.0887 3.50136 22.1875 3.75 22.1875H16.25C16.4986 22.1875 16.7371 22.0887 16.9129 21.9129C17.0887 21.7371 17.1875 21.4986 17.1875 21.25Z" fill="currentColor"/>
<path d="M26.25 21.25C26.25 21.913 25.9866 22.5489 25.5178 23.0178C25.0489 23.4866 24.413 23.75 23.75 23.75C23.087 23.75 22.4511 23.4866 21.9822 23.0178C21.5134 22.5489 21.25 21.913 21.25 21.25C21.25 20.587 21.5134 19.9511 21.9822 19.4822C22.4511 19.0134 23.087 18.75 23.75 18.75C24.413 18.75 25.0489 19.0134 25.5178 19.4822C25.9866 19.9511 26.25 20.587 26.25 21.25Z" fill="currentColor"/>
<path fill-rule="evenodd" clip-rule="evenodd" d="M23.75 19.6875C23.3356 19.6875 22.9382 19.8521 22.6451 20.1451C22.3521 20.4382 22.1875 20.8356 22.1875 21.25C22.1875 21.6644 22.3521 22.0618 22.6451 22.3549C22.9382 22.6479 23.3356 22.8125 23.75 22.8125C24.1644 22.8125 24.5618 22.6479 24.8549 22.3549C25.1479 22.0618 25.3125 21.6644 25.3125 21.25C25.3125 20.8356 25.1479 20.4382 24.8549 20.1451C24.5618 19.8521 24.1644 19.6875 23.75 19.6875ZM20.3125 21.25C20.3125 20.3383 20.6747 19.464 21.3193 18.8193C21.964 18.1747 22.8383 17.8125 23.75 17.8125C24.6617 17.8125 25.536 18.1747 26.1807 18.8193C26.8253 19.464 27.1875 20.3383 27.1875 21.25C27.1875 22.1617 26.8253 23.036 26.1807 23.6807C25.536 24.3253 24.6617 24.6875 23.75 24.6875C22.8383 24.6875 21.964 24.3253 21.3193 23.6807C20.6747 23.036 20.3125 22.1617 20.3125 21.25Z" fill="currentColor"/>
</g></symbol><symbol id="inst" viewBox="0 0 21 21"><g fill="none">
<path d="M15.3155 0H5.68452C2.55002 0 0 2.55002 0 5.68452V15.3156C0 18.45 2.55002 21 5.68452 21H15.3156C18.45 21 21 18.45 21 15.3156V5.68452C21 2.55002 18.45 0 15.3155 0ZM10.5 16.242C7.3338 16.242 4.75798 13.6662 4.75798 10.5C4.75798 7.33376 7.33376 4.75798 10.5 4.75798C13.6662 4.75798 16.242 7.33376 16.242 10.5C16.242 13.6662 13.6662 16.242 10.5 16.242ZM16.3793 6.11215C15.4437 6.11215 14.6826 5.3511 14.6826 4.41541C14.6826 3.47972 15.4437 2.7186 16.3793 2.7186C17.315 2.7186 18.0762 3.47977 18.0762 4.41541C18.0762 5.35106 17.315 6.11215 16.3793 6.11215Z" fill="currentColor"/>
<path d="M10.5707 6.02803C8.05056 6.02803 6 8.04036 6 10.514C6 12.9875 8.05056 15 10.5707 15C13.0911 15 15.1415 12.9875 15.1415 10.514C15.1415 8.04036 13.0911 6.02803 10.5707 6.02803ZM16.5281 4C16.268 4 16.0563 4.20782 16.0563 4.46304C16.0563 4.7183 16.268 4.92608 16.5281 4.92608C16.7883 4.92608 17 4.71846 17 4.46304C17 4.20766 16.7883 4 16.5281 4Z" fill="currentColor"/>
</g></symbol><symbol id="search" viewBox="0 0 24 24"><g fill="none">
<path d="M23.7896 22.7761L17.9572 16.9437C19.5217 15.145 20.469 12.7982 20.469 10.2333C20.469 4.58714 15.8765 0 10.2357 0C4.58958 0 0.00244141 4.59246 0.00244141 10.2333C0.00244141 15.8741 4.5949 20.4665 10.2357 20.4665C12.8007 20.4665 15.1475 19.5193 16.9461 17.9548L22.7785 23.7871C22.9169 23.9255 23.1031 24 23.284 24C23.465 24 23.6512 23.9308 23.7896 23.7871C24.0663 23.5104 24.0663 23.0528 23.7896 22.7761ZM1.43393 10.2333C1.43393 5.38004 5.38249 1.43681 10.2304 1.43681C15.0836 1.43681 19.0268 5.38537 19.0268 10.2333C19.0268 15.0812 15.0836 19.035 10.2304 19.035C5.38249 19.035 1.43393 15.0865 1.43393 10.2333Z" fill="currentColor"/>
</g></symbol><symbol id="tg" viewBox="0 0 24 24"><g fill="none">
<path d="M1.50117 11.3637L6.73286 13.1403L19.1549 5.54625C19.3352 5.43658 19.5196 5.6811 19.3645 5.82408L9.96042 14.4799L9.6111 19.3257C9.6054 19.4069 9.6245 19.4879 9.66588 19.558C9.70726 19.628 9.76897 19.6839 9.84281 19.7181C9.91666 19.7522 9.99915 19.7632 10.0793 19.7494C10.1595 19.7356 10.2337 19.6978 10.2919 19.6409L13.1872 16.7936L18.4806 20.8002C19.0509 21.2324 19.8771 20.9277 20.0306 20.2291L23.7164 3.49419C23.9268 2.53965 22.9909 1.73378 22.0786 2.0831L1.47517 9.97288C0.828525 10.2207 0.846397 11.1411 1.50117 11.3637Z" fill="currentColor"/>
</g></symbol></svg>