<?xml version="1.0" encoding="UTF-8"?><!DOCTYPE svg PUBLIC "-//W3C//DTD SVG 1.1//EN" "http://www.w3.org/Graphics/SVG/1.1/DTD/svg11.dtd"><svg xmlns="http://www.w3.org/2000/svg" xmlns:xlink="http://www.w3.org/1999/xlink"><symbol id="arrow" viewBox="0 0 6 11"><g fill="none">
<path d="M5.81253 5.49997C5.81259 5.56153 5.80049 5.6225 5.77692 5.67938C5.75335 5.73625 5.71878 5.78791 5.67519 5.83138L0.987685 10.5189C0.804521 10.702 0.50792 10.702 0.324873 10.5189C0.141826 10.3357 0.141709 10.0391 0.324873 9.85606L4.68097 5.49997L0.324873 1.14388C0.141709 0.960713 0.141709 0.664111 0.324873 0.481064C0.508037 0.298017 0.804638 0.2979 0.987685 0.481064L5.67519 5.16856C5.71878 5.21204 5.75335 5.26369 5.77692 5.32056C5.80049 5.37744 5.81259 5.43841 5.81253 5.49997Z" fill="currentColor"/>
</g></symbol><symbol id="burger" viewBox="0 0 27 18"><g fill="none">
<rect width="27" height="1.58824" rx="0.794118" fill="black"/>
<rect y="7.94092" width="27" height="1.58824" rx="0.794118" fill="black"/>
<rect y="15.8818" width="27" height="1.58824" rx="0.794118" fill="black"/>
</g></symbol><symbol id="cart" viewBox="0 0 22 24"><g fill="none">
<path d="M4.16492 24H17.2505C19.5471 24 21.4154 22.1317 21.4154 19.8351V7.38462C21.4154 6.97846 21.0831 6.64615 20.6769 6.64615H16.2462V5.53846C16.2462 2.48492 13.7612 0 10.7077 0C7.65415 0 5.16923 2.48492 5.16923 5.53846V6.64615H0.738462C0.332308 6.64615 0 6.97846 0 7.38462V19.8351C0 22.1317 1.86831 24 4.16492 24ZM6.64615 5.53846C6.64615 3.29723 8.46646 1.47692 10.7077 1.47692C12.9489 1.47692 14.7692 3.29723 14.7692 5.53846V6.64615H6.64615V5.53846ZM1.47692 8.12308H5.16923V9.96923C5.16923 10.3754 5.50154 10.7077 5.90769 10.7077C6.31385 10.7077 6.64615 10.3754 6.64615 9.96923V8.12308H14.7692V9.96923C14.7692 10.3754 15.1015 10.7077 15.5077 10.7077C15.9138 10.7077 16.2462 10.3754 16.2462 9.96923V8.12308H19.9385V19.8351C19.9385 21.3157 18.7311 22.5231 17.2505 22.5231H4.16492C2.68431 22.5231 1.47692 21.3157 1.47692 19.8351V8.12308Z" fill="currentColor"/>
</g></symbol><symbol id="close" viewBox="0 0 18 18"><g fill="none">
<path d="M9.59613 9L13.7136 4.8825C13.7551 4.84388 13.7883 4.7973 13.8114 4.74555C13.8344 4.6938 13.8468 4.63794 13.8478 4.5813C13.8488 4.52465 13.8384 4.46838 13.8172 4.41585C13.796 4.36332 13.7644 4.3156 13.7243 4.27554C13.6843 4.23548 13.6366 4.2039 13.584 4.18268C13.5315 4.16146 13.4752 4.15104 13.4186 4.15204C13.3619 4.15304 13.3061 4.16544 13.2543 4.1885C13.2026 4.21156 13.156 4.2448 13.1174 4.28625L8.99988 8.40375L4.88238 4.28625C4.80241 4.21173 4.69663 4.17116 4.58734 4.17309C4.47804 4.17502 4.37376 4.21929 4.29647 4.29659C4.21917 4.37388 4.1749 4.47816 4.17297 4.58746C4.17104 4.69675 4.21161 4.80253 4.28613 4.8825L8.40363 9L4.28613 13.1175C4.24468 13.1561 4.21144 13.2027 4.18838 13.2544C4.16532 13.3062 4.15292 13.3621 4.15192 13.4187C4.15092 13.4754 4.16134 13.5316 4.18256 13.5841C4.20378 13.6367 4.23536 13.6844 4.27542 13.7245C4.31548 13.7645 4.3632 13.7961 4.41573 13.8173C4.46826 13.8385 4.52453 13.849 4.58117 13.848C4.63782 13.847 4.69368 13.8346 4.74543 13.8115C4.79718 13.7884 4.84376 13.7552 4.88238 13.7137L8.99988 9.59625L13.1174 13.7137C13.156 13.7552 13.2026 13.7884 13.2543 13.8115C13.3061 13.8346 13.3619 13.847 13.4186 13.848C13.4752 13.849 13.5315 13.8385 13.584 13.8173C13.6366 13.7961 13.6843 13.7645 13.7243 13.7245C13.7644 13.6844 13.796 13.6367 13.8172 13.5841C13.8384 13.5316 13.8488 13.4754 13.8478 13.4187C13.8468 13.3621 13.8344 13.3062 13.8114 13.2544C13.7883 13.2027 13.7551 13.1561 13.7136 13.1175L9.59613 9Z" fill="currentColor"/>
</g></symbol><symbol id="comment" viewBox="0 0 25 27"><g fill="none">
<path d="M19.2812 0.90625H5.71875C4.43458 0.907788 3.20345 1.4186 2.2954 2.32665C1.38735 3.2347 0.876538 4.46583 0.875 5.75V15.4375C0.876538 16.7217 1.38735 17.9528 2.2954 18.8609C3.20345 19.7689 4.43458 20.2797 5.71875 20.2812H7.65625V25.125C7.65642 25.3101 7.70963 25.4913 7.80956 25.6471C7.9095 25.8029 8.05198 25.9268 8.22015 26.0042C8.38832 26.0816 8.57513 26.1091 8.75848 26.0836C8.94182 26.0581 9.11402 25.9806 9.25469 25.8603L15.7647 20.2812H19.2812C20.5654 20.2797 21.7966 19.7689 22.7046 18.8609C23.6126 17.9528 24.1235 16.7217 24.125 15.4375V5.75C24.1235 4.46583 23.6126 3.2347 22.7046 2.32665C21.7966 1.4186 20.5654 0.907788 19.2812 0.90625ZM6.6875 12.5312C6.3043 12.5312 5.9297 12.4176 5.61108 12.2047C5.29246 11.9918 5.04413 11.6892 4.89748 11.3352C4.75084 10.9812 4.71247 10.5916 4.78723 10.2158C4.86199 9.83992 5.04652 9.4947 5.31748 9.22373C5.58845 8.95277 5.93367 8.76824 6.30951 8.69348C6.68535 8.61872 7.07492 8.65709 7.42895 8.80373C7.78298 8.95038 8.08558 9.19871 8.29847 9.51733C8.51137 9.83595 8.625 10.2105 8.625 10.5938C8.625 11.1076 8.42087 11.6004 8.05752 11.9638C7.69417 12.3271 7.20136 12.5312 6.6875 12.5312ZM12.5 12.5312C12.1168 12.5312 11.7422 12.4176 11.4236 12.2047C11.105 11.9918 10.8566 11.6892 10.71 11.3352C10.5633 10.9812 10.525 10.5916 10.5997 10.2158C10.6745 9.83992 10.859 9.4947 11.13 9.22373C11.4009 8.95277 11.7462 8.76824 12.122 8.69348C12.4979 8.61872 12.8874 8.65709 13.2414 8.80373C13.5955 8.95038 13.8981 9.19871 14.111 9.51733C14.3239 9.83595 14.4375 10.2105 14.4375 10.5938C14.4375 11.1076 14.2334 11.6004 13.87 11.9638C13.5067 12.3271 13.0139 12.5312 12.5 12.5312ZM18.3125 12.5312C17.9293 12.5312 17.5547 12.4176 17.2361 12.2047C16.9175 11.9918 16.6691 11.6892 16.5225 11.3352C16.3758 10.9812 16.3375 10.5916 16.4122 10.2158C16.487 9.83992 16.6715 9.4947 16.9425 9.22373C17.2134 8.95277 17.5587 8.76824 17.9345 8.69348C18.3104 8.61872 18.6999 8.65709 19.0539 8.80373C19.408 8.95038 19.7106 9.19871 19.9235 9.51733C20.1364 9.83595 20.25 10.2105 20.25 10.5938C20.25 11.1076 20.0459 11.6004 19.6825 11.9638C19.3192 12.3271 18.8264 12.5312 18.3125 12.5312Z" fill="currentColor"/>
</g></symbol><symbol id="search" viewBox="0 0 24 24"><g fill="none">
<path d="M23.7896 22.7761L17.9572 16.9437C19.5217 15.145 20.469 12.7982 20.469 10.2333C20.469 4.58714 15.8765 0 10.2357 0C4.58958 0 0.00244141 4.59246 0.00244141 10.2333C0.00244141 15.8741 4.5949 20.4665 10.2357 20.4665C12.8007 20.4665 15.1475 19.5193 16.9461 17.9548L22.7785 23.7871C22.9169 23.9255 23.1031 24 23.284 24C23.465 24 23.6512 23.9308 23.7896 23.7871C24.0663 23.5104 24.0663 23.0528 23.7896 22.7761ZM1.43393 10.2333C1.43393 5.38004 5.38249 1.43681 10.2304 1.43681C15.0836 1.43681 19.0268 5.38537 19.0268 10.2333C19.0268 15.0812 15.0836 19.035 10.2304 19.035C5.38249 19.035 1.43393 15.0865 1.43393 10.2333Z" fill="currentColor"/>
</g></symbol></svg>