<svg viewBox="0 0 18 18" fill="none" xmlns="http://www.w3.org/2000/svg">
<path d="M9.59613 9L13.7136 4.8825C13.7551 4.84388 13.7883 4.7973 13.8114 4.74555C13.8344 4.6938 13.8468 4.63794 13.8478 4.5813C13.8488 4.52465 13.8384 4.46838 13.8172 4.41585C13.796 4.36332 13.7644 4.3156 13.7243 4.27554C13.6843 4.23548 13.6366 4.2039 13.584 4.18268C13.5315 4.16146 13.4752 4.15104 13.4186 4.15204C13.3619 4.15304 13.3061 4.16544 13.2543 4.1885C13.2026 4.21156 13.156 4.2448 13.1174 4.28625L8.99988 8.40375L4.88238 4.28625C4.80241 4.21173 4.69663 4.17116 4.58734 4.17309C4.47804 4.17502 4.37376 4.21929 4.29647 4.29659C4.21917 4.37388 4.1749 4.47816 4.17297 4.58746C4.17104 4.69675 4.21161 4.80253 4.28613 4.8825L8.40363 9L4.28613 13.1175C4.24468 13.1561 4.21144 13.2027 4.18838 13.2544C4.16532 13.3062 4.15292 13.3621 4.15192 13.4187C4.15092 13.4754 4.16134 13.5316 4.18256 13.5841C4.20378 13.6367 4.23536 13.6844 4.27542 13.7245C4.31548 13.7645 4.3632 13.7961 4.41573 13.8173C4.46826 13.8385 4.52453 13.849 4.58117 13.848C4.63782 13.847 4.69368 13.8346 4.74543 13.8115C4.79718 13.7884 4.84376 13.7552 4.88238 13.7137L8.99988 9.59625L13.1174 13.7137C13.156 13.7552 13.2026 13.7884 13.2543 13.8115C13.3061 13.8346 13.3619 13.847 13.4186 13.848C13.4752 13.849 13.5315 13.8385 13.584 13.8173C13.6366 13.7961 13.6843 13.7645 13.7243 13.7245C13.7644 13.6844 13.796 13.6367 13.8172 13.5841C13.8384 13.5316 13.8488 13.4754 13.8478 13.4187C13.8468 13.3621 13.8344 13.3062 13.8114 13.2544C13.7883 13.2027 13.7551 13.1561 13.7136 13.1175L9.59613 9Z" fill="currentColor"/>
</svg>
