<svg viewBox="0 0 25 27" fill="none" xmlns="http://www.w3.org/2000/svg">
<path d="M19.2812 0.90625H5.71875C4.43458 0.907788 3.20345 1.4186 2.2954 2.32665C1.38735 3.2347 0.876538 4.46583 0.875 5.75V15.4375C0.876538 16.7217 1.38735 17.9528 2.2954 18.8609C3.20345 19.7689 4.43458 20.2797 5.71875 20.2812H7.65625V25.125C7.65642 25.3101 7.70963 25.4913 7.80956 25.6471C7.9095 25.8029 8.05198 25.9268 8.22015 26.0042C8.38832 26.0816 8.57513 26.1091 8.75848 26.0836C8.94182 26.0581 9.11402 25.9806 9.25469 25.8603L15.7647 20.2812H19.2812C20.5654 20.2797 21.7966 19.7689 22.7046 18.8609C23.6126 17.9528 24.1235 16.7217 24.125 15.4375V5.75C24.1235 4.46583 23.6126 3.2347 22.7046 2.32665C21.7966 1.4186 20.5654 0.907788 19.2812 0.90625ZM6.6875 12.5312C6.3043 12.5312 5.9297 12.4176 5.61108 12.2047C5.29246 11.9918 5.04413 11.6892 4.89748 11.3352C4.75084 10.9812 4.71247 10.5916 4.78723 10.2158C4.86199 9.83992 5.04652 9.4947 5.31748 9.22373C5.58845 8.95277 5.93367 8.76824 6.30951 8.69348C6.68535 8.61872 7.07492 8.65709 7.42895 8.80373C7.78298 8.95038 8.08558 9.19871 8.29847 9.51733C8.51137 9.83595 8.625 10.2105 8.625 10.5938C8.625 11.1076 8.42087 11.6004 8.05752 11.9638C7.69417 12.3271 7.20136 12.5312 6.6875 12.5312ZM12.5 12.5312C12.1168 12.5312 11.7422 12.4176 11.4236 12.2047C11.105 11.9918 10.8566 11.6892 10.71 11.3352C10.5633 10.9812 10.525 10.5916 10.5997 10.2158C10.6745 9.83992 10.859 9.4947 11.13 9.22373C11.4009 8.95277 11.7462 8.76824 12.122 8.69348C12.4979 8.61872 12.8874 8.65709 13.2414 8.80373C13.5955 8.95038 13.8981 9.19871 14.111 9.51733C14.3239 9.83595 14.4375 10.2105 14.4375 10.5938C14.4375 11.1076 14.2334 11.6004 13.87 11.9638C13.5067 12.3271 13.0139 12.5312 12.5 12.5312ZM18.3125 12.5312C17.9293 12.5312 17.5547 12.4176 17.2361 12.2047C16.9175 11.9918 16.6691 11.6892 16.5225 11.3352C16.3758 10.9812 16.3375 10.5916 16.4122 10.2158C16.487 9.83992 16.6715 9.4947 16.9425 9.22373C17.2134 8.95277 17.5587 8.76824 17.9345 8.69348C18.3104 8.61872 18.6999 8.65709 19.0539 8.80373C19.408 8.95038 19.7106 9.19871 19.9235 9.51733C20.1364 9.83595 20.25 10.2105 20.25 10.5938C20.25 11.1076 20.0459 11.6004 19.6825 11.9638C19.3192 12.3271 18.8264 12.5312 18.3125 12.5312Z" fill="currentColor"/>
</svg>
